Coordinates
version=1
nRows=37
nColumns=34
inDegrees=yes
inDegrees=no

Units are S.I. units (second, meters, Newtons, ...)
If the header above contains a line with 'inDegrees', this indicates whether rotational values are in degrees (yes) or radians (no).

endheader
time	pelvis_tilt	pelvis_list	pelvis_rotation	pelvis_tx	pelvis_ty	pelvis_tz	hip_flexion_r	hip_adduction_r	hip_rotation_r	knee_angle_r	ankle_angle_r	subtalar_angle_r	mtp_angle_r	hip_flexion_l	hip_adduction_l	hip_rotation_l	knee_angle_l	ankle_angle_l	subtalar_angle_l	mtp_angle_l	lumbar_extension	lumbar_bending	lumbar_rotation	arm_flex_r	arm_add_r	arm_rot_r	elbow_flex_r	pro_sup_r	arm_flex_l	arm_add_l	arm_rot_l	elbow_flex_l	pro_sup_l
8.800000 0.095169 0.119525 0.199729 -0.010569 0.008549 0.000572 1.509188 0.077618 0.201525 0.808970 -0.102949 -0.323040 0.000000 1.540425 0.023204 -0.070382 0.994442 0.536174 -0.185875 0.000000 -0.707849 0.038899 0.534187 1.608911 -0.768939 0.614633 0.772191 1.371645 2.510256 0.016899 1.307661 0.647900 1.145098
8.816667 0.090815 0.130404 0.220001 -0.010712 0.008648 0.000654 1.510632 0.065619 0.234307 0.812050 -0.190104 -0.364436 0.000000 1.543575 0.040914 -0.089279 0.993796 0.331538 -0.287543 0.000000 -0.764992 0.033059 0.546766 1.754538 -0.768891 0.707577 0.706847 1.329237 2.587441 0.009847 1.329265 0.668891 1.099672
8.833333 0.080536 0.136701 0.231600 -0.010476 0.008793 0.000569 1.516974 0.061332 0.249481 0.826206 -0.243411 -0.406231 0.000000 1.546531 0.051000 -0.092122 0.994138 0.239728 -0.296029 0.000000 -0.801134 0.028667 0.564744 1.840900 -0.777847 0.763506 0.669895 1.295557 2.623708 0.015246 1.303108 0.695020 1.064435
8.850000 0.061284 0.137690 0.240116 -0.010543 0.008664 0.000484 1.542474 0.056078 0.250627 0.850311 -0.240093 -0.402222 0.000000 1.563003 0.060890 -0.087679 0.992069 0.241924 -0.260998 0.000000 -0.817343 0.034207 0.600359 1.952477 -0.800156 0.922062 0.616281 1.215154 2.635686 0.022192 1.268021 0.726419 1.005815
8.866667 0.052426 0.150514 0.251610 -0.010397 0.008735 0.000487 1.545736 0.039764 0.257858 0.846871 -0.218221 -0.400662 0.000000 1.562012 0.078721 -0.095174 0.983681 0.257106 -0.290501 0.000000 -0.844408 0.025865 0.612488 2.016680 -0.816546 0.956338 0.594517 1.171571 2.654691 0.040437 1.225750 0.740396 0.989302
8.883333 0.013785 0.152305 0.254311 -0.010136 0.008603 0.000440 1.590774 0.033160 0.247819 0.860909 -0.245782 -0.438431 0.000000 1.595631 0.080870 -0.094469 0.990033 0.350235 -0.271889 0.000000 -0.825359 0.019515 0.639187 2.077800 -0.847794 1.020255 0.576161 1.138238 2.630594 0.060849 1.161396 0.776287 0.980881
8.900000 -0.008751 0.165535 0.254153 -0.010268 0.008562 0.000514 1.616928 0.024462 0.244565 0.859718 -0.272508 -0.432165 0.000000 1.620063 0.080700 -0.116537 1.006236 0.425274 -0.249101 0.000000 -0.847758 0.002286 0.643770 2.165150 -0.846162 1.100515 0.541300 1.109210 2.638204 0.075138 1.091828 0.791835 0.986547
8.916667 -0.038930 0.167189 0.247717 -0.010137 0.008380 0.000496 1.660018 0.025478 0.228000 0.868549 -0.279772 -0.433696 0.000000 1.663149 0.069934 -0.124728 1.032356 0.511517 -0.207766 0.000000 -0.846999 -0.006350 0.643882 2.198469 -0.843836 1.143804 0.536768 1.086088 2.637713 0.080595 1.057675 0.814289 0.999187
8.933333 -0.055400 0.171981 0.225980 -0.010232 0.008341 0.000573 1.686416 0.037050 0.204091 0.869993 -0.274684 -0.430972 0.000000 1.690955 0.044786 -0.132728 1.066742 0.616629 -0.165642 0.000000 -0.869965 -0.025656 0.628671 2.225623 -0.802621 1.167755 0.503679 1.071296 2.670005 0.086159 1.050402 0.798900 1.007850
8.950000 -0.073840 0.175197 0.190906 -0.009831 0.008072 0.000505 1.726264 0.061278 0.168320 0.893055 -0.223389 -0.398539 0.000000 1.737194 0.002758 -0.136638 1.126728 0.835455 -0.081557 0.000000 -0.869905 -0.048539 0.617922 2.199174 -0.778333 1.167064 0.505176 1.055645 2.674378 0.082075 1.040048 0.824939 1.013143
8.966667 -0.109918 0.174892 0.161818 -0.009692 0.007934 0.000578 1.779631 0.079818 0.137000 0.903709 -0.210792 -0.373808 0.000000 1.800438 -0.036354 -0.133493 1.169338 0.872665 -0.153786 0.000000 -0.856066 -0.069081 0.603909 2.178642 -0.756583 1.147659 0.512265 1.050739 2.667725 0.066362 0.996183 0.883619 1.018590
8.983333 -0.131713 0.169918 0.145929 -0.009687 0.007922 0.000607 1.810346 0.090235 0.119127 0.923994 -0.209752 -0.359659 0.000000 1.837906 -0.057144 -0.138968 1.188112 0.872665 -0.274406 0.000000 -0.863713 -0.073151 0.574398 2.145402 -0.729382 1.108433 0.515906 1.051031 2.663909 0.047664 0.962296 0.944326 1.028677
9.000000 -0.132919 0.153645 0.145736 -0.009830 0.007662 0.000814 1.831084 0.096485 0.100492 0.944206 -0.204862 -0.368104 0.000000 1.857701 -0.065056 -0.124607 1.196189 0.872665 -0.380376 0.000000 -0.888861 -0.058389 0.521963 2.077490 -0.668018 0.999671 0.518618 1.063656 2.682626 0.033479 0.979390 0.955355 1.043491
9.016667 -0.146272 0.136603 0.136304 -0.009660 0.007568 0.000731 1.859648 0.103035 0.081964 0.962351 -0.225123 -0.407049 0.000000 1.892497 -0.079869 -0.104849 1.205389 0.872665 -0.531356 0.000000 -0.893578 -0.047251 0.465078 1.990634 -0.617915 0.898267 0.543898 1.083888 2.695404 0.023488 1.018528 0.957579 1.044799
9.033333 -0.165313 0.127782 0.123490 -0.009632 0.007486 0.000751 1.889331 0.116276 0.066335 0.973410 -0.230812 -0.418369 0.000000 1.922535 -0.095207 -0.086077 1.208516 0.872665 -0.610865 0.000000 -0.885983 -0.041197 0.405135 1.838155 -0.559956 0.692996 0.607844 1.122582 2.682217 0.008153 1.048920 0.977825 1.032778
9.050000 -0.178178 0.114653 0.113925 -0.009428 0.007522 0.000842 1.898971 0.124582 0.046791 0.967255 -0.212454 -0.428676 0.000000 1.936864 -0.111669 -0.070400 1.210615 0.872665 -0.610865 0.000000 -0.882440 -0.035713 0.356762 1.670210 -0.506555 0.483443 0.699153 1.209501 2.651295 0.012577 1.050273 0.979491 1.008532
9.066667 -0.218854 0.102182 0.099540 -0.008390 0.007508 0.000488 1.961967 0.132362 0.016091 1.031918 -0.166993 -0.442256 0.000000 1.996085 -0.139919 -0.061474 1.275163 0.872665 -0.610865 0.000000 -0.796515 -0.034363 0.370046 1.344885 -0.532795 0.203236 0.869751 1.332692 2.487100 0.063309 0.967577 1.066546 1.011999
9.083333 -0.253381 0.085033 0.094157 -0.007847 0.007387 0.000424 2.029475 0.128947 -0.022651 1.115921 -0.088317 -0.414651 0.000000 2.063621 -0.170307 -0.065987 1.367950 0.872665 -0.610865 0.000000 -0.714326 -0.016490 0.396037 1.022846 -0.523799 -0.037093 1.045663 1.421141 2.315971 0.119964 0.878492 1.157766 1.047258
9.100000 -0.253039 0.076298 0.094222 -0.007657 0.007304 0.000396 2.063577 0.115075 -0.047519 1.194393 -0.004438 -0.367051 0.000000 2.094395 -0.188780 -0.075764 1.440834 0.872665 -0.610865 0.000000 -0.683117 0.010440 0.398044 0.819802 -0.483865 -0.170270 1.156615 1.469410 2.184301 0.154699 0.816097 1.197081 1.085968
9.116667 -0.227875 0.081339 0.086017 -0.008018 0.007227 0.000554 2.066212 0.110455 -0.064177 1.228741 0.039906 -0.294363 0.000000 2.094395 -0.211129 -0.081293 1.481347 0.872665 -0.610865 0.000000 -0.707050 0.010215 0.354128 0.793940 -0.424376 -0.164546 1.174326 1.522856 2.179380 0.165731 0.793702 1.103429 1.120137
9.133333 -0.206512 0.092554 0.073272 -0.008121 0.007083 0.000534 2.061379 0.107132 -0.082052 1.238381 0.060930 -0.240695 0.000000 2.094395 -0.232864 -0.089023 1.508723 0.872665 -0.610865 0.000000 -0.727408 0.006810 0.300864 0.799392 -0.377789 -0.118866 1.192119 1.537437 2.187095 0.144975 0.774266 1.022859 1.119917
9.150000 -0.202461 0.094717 0.058209 -0.008265 0.007070 0.000650 2.054857 0.111923 -0.107072 1.215400 0.064717 -0.189262 0.000000 2.094395 -0.255823 -0.087361 1.505370 0.872665 -0.610865 0.000000 -0.737473 0.004054 0.251724 0.830740 -0.327930 -0.059170 1.181756 1.566998 2.222722 0.112716 0.788511 0.923798 1.118108
9.166667 -0.198693 0.092501 0.046745 -0.008278 0.007104 0.000719 2.043226 0.111075 -0.129681 1.190770 0.056373 -0.155183 0.000000 2.094395 -0.269581 -0.077544 1.498033 0.872665 -0.610865 0.000000 -0.748975 0.009019 0.215017 0.839765 -0.290018 -0.017041 1.175282 1.593949 2.239872 0.085968 0.797606 0.855495 1.113684
9.183333 -0.189574 0.091401 0.029930 -0.008392 0.007054 0.000722 2.030186 0.114994 -0.149985 1.170381 0.039876 -0.125904 0.000000 2.094395 -0.283063 -0.068468 1.494996 0.872665 -0.610865 0.000000 -0.764477 0.008157 0.180074 0.834152 -0.261266 0.018374 1.180001 1.623835 2.254299 0.065297 0.816443 0.800414 1.110606
9.200000 -0.189582 0.082894 0.015806 -0.008686 0.007099 0.000782 2.017131 0.121220 -0.165199 1.131114 -0.001158 -0.107922 0.000000 2.094395 -0.283104 -0.056694 1.465553 0.872665 -0.610865 0.000000 -0.775880 0.015468 0.151593 0.835052 -0.235319 0.049063 1.181130 1.662421 2.264353 0.043842 0.841028 0.753040 1.107725
9.216667 -0.194822 0.078168 -0.006238 -0.008483 0.007317 0.000714 2.000269 0.130326 -0.182079 1.099876 -0.021981 -0.092744 0.000000 2.094395 -0.284838 -0.037123 1.438763 0.872665 -0.610865 0.000000 -0.776671 0.022258 0.141515 0.798109 -0.220858 0.045624 1.184680 1.727082 2.217716 0.028799 0.814254 0.769024 1.103319
9.233333 -0.205892 0.077269 -0.024510 -0.008514 0.007569 0.000682 1.979491 0.137330 -0.190972 1.068611 -0.038129 -0.080547 0.000000 2.087017 -0.287275 -0.025765 1.415904 0.872665 -0.610865 0.000000 -0.774922 0.023019 0.137612 0.738490 -0.219380 0.020314 1.192903 1.778598 2.161935 0.035064 0.783402 0.768603 1.116273
9.250000 -0.187355 0.074522 -0.048113 -0.008789 0.007777 0.000767 1.925284 0.152227 -0.203982 1.025124 -0.064668 -0.082808 0.000000 2.035926 -0.291981 -0.022271 1.366741 0.872665 -0.610865 0.000000 -0.812379 0.018031 0.112429 0.711624 -0.202922 0.022230 1.192834 1.787390 2.124214 0.023424 0.767302 0.767239 1.118690
9.266667 -0.162446 0.068568 -0.067919 -0.009002 0.007936 0.000823 1.862401 0.169596 -0.214550 0.956530 -0.081532 -0.077138 0.000000 1.982899 -0.293909 -0.013791 1.328923 0.872665 -0.610865 0.000000 -0.854407 0.022679 0.077761 0.697285 -0.181362 0.042146 1.177517 1.814368 2.077728 -0.002043 0.703057 0.785608 1.122950
9.283333 -0.129638 0.063800 -0.086829 -0.009406 0.008087 0.001008 1.791458 0.194295 -0.221906 0.883671 -0.120723 -0.073878 0.000000 1.919069 -0.299704 -0.008951 1.279109 0.872665 -0.610865 0.000000 -0.910908 0.012176 0.042785 0.676676 -0.159744 0.052734 1.193837 1.823057 2.058818 -0.023938 0.667702 0.802335 1.121747
9.300000 -0.092585 0.052974 -0.096112 -0.009509 0.008150 0.001002 1.725925 0.207793 -0.228132 0.820628 -0.144151 -0.076562 0.000000 1.864822 -0.295265 0.002901 1.243902 0.872665 -0.610865 0.000000 -0.957347 0.018485 0.000688 0.649774 -0.144580 0.079387 1.210125 1.839713 2.022184 -0.050254 0.604204 0.830076 1.111711
9.316667 -0.071063 0.041987 -0.106104 -0.009241 0.008296 0.000969 1.684659 0.221325 -0.239849 0.794986 -0.154569 -0.082319 0.000000 1.829540 -0.295484 0.021919 1.229837 0.872665 -0.531571 0.000000 -0.972097 0.026434 -0.008425 0.553811 -0.152685 0.056212 1.250532 1.846897 1.935184 -0.060245 0.563501 0.911624 1.105685
9.333333 -0.051143 0.028231 -0.116931 -0.009257 0.008333 0.001025 1.652591 0.237793 -0.251882 0.773328 -0.158277 -0.074075 0.000000 1.807685 -0.302816 0.038843 1.235051 0.872665 -0.279451 0.000000 -0.978223 0.034681 -0.018081 0.451485 -0.161493 0.036128 1.274872 1.851175 1.850418 -0.075777 0.544397 0.976988 1.105606
9.350000 -0.029701 0.016752 -0.117523 -0.009268 0.008523 0.001153 1.611390 0.252449 -0.251815 0.749231 -0.151652 -0.077190 0.000000 1.780031 -0.302466 0.046835 1.234894 0.872665 -0.215850 0.000000 -0.984729 0.039934 -0.026687 0.368974 -0.159426 0.016795 1.252475 1.853812 1.762654 -0.080010 0.534559 1.020464 1.108338
9.366667 -0.006932 0.014942 -0.118061 -0.009622 0.008612 0.001138 1.563397 0.261483 -0.240194 0.714140 -0.152602 -0.101923 0.000000 1.730749 -0.294753 0.040616 1.202748 0.872665 -0.127777 0.000000 -0.988927 0.047000 -0.056491 0.302362 -0.157754 0.010929 1.240528 1.857275 1.686789 -0.106868 0.533959 1.056758 1.115152
9.383333 0.023198 0.009433 -0.116029 -0.009717 0.008568 0.001078 1.517827 0.266086 -0.236764 0.673335 -0.146692 -0.099499 0.000000 1.691049 -0.280844 0.045739 1.181211 0.872665 -0.104718 0.000000 -0.983556 0.060163 -0.081123 0.248441 -0.159500 0.010233 1.207860 1.863019 1.590878 -0.129655 0.522097 1.089376 1.124833
9.400000 0.046948 0.007596 -0.124692 -0.009863 0.008438 0.001046 1.490738 0.277882 -0.225434 0.647223 -0.149246 -0.125777 0.000000 1.668269 -0.273494 0.056583 1.168188 0.872665 -0.054605 0.000000 -0.958345 0.064402 -0.115995 0.215608 -0.178332 0.040577 1.152637 1.869525 1.496455 -0.151370 0.504969 1.098015 1.140385
